# xmcd
#
# Track frame offsets: 
#        150
#        25633
#        38043
#        55633
#        79743
#        101323
#        117676
#        138556
#        159423
#        183386
#        208946
#        227796
#        247051
#        270266
#        289963
#        309966
#
# Disc length: 4420 seconds
#
# Revision: 3
# Processed by: cddbd v1.5.2PL0 Copyright (c) Steve Scherf et al.
# Submitted via: ExactAudioCopyFreeDBPlugin 1.0
#
DISCID=d9114210
DTITLE=Various Artist - Urban Rhymes [CDOne)
DYEAR=1999
DGENRE=Rap
TTITLE0=2Pac - Mr. President
TTITLE1=Notorious B.I.G. - Real Niggaz (Do Real Things)
TTITLE2=H-Bomb (feat. Coolio and Ice-T) - Connect The Dots
TTITLE3=Afrika Bambaata - Break Me Off
TTITLE4=L.A. Nash (feat. Jewe'll) - It's About Time
TTITLE5=Willie D (feat. Ice Cube) - Play Witcha Mamma
TTITLE6=Kool Moe Dee - Oh Yea
TTITLE7=H-Bomb (feat. Roger Troutman) - Players Need No Luv
TTITLE8=Domino (feat. K-Ci and Jojo) - Get Yo' Money
TTITLE9=Notorious B.I.G. - Who's In The House
TTITLE10=DJ Quad (feat. 211) - Move And Twist It
TTITLE11=Fearless - Rockin' It
TTITLE12=MC Breed (feat. George Clinton) - This Is How We Do It (Parts
TTITLE12=1&2)
TTITLE13=The Treacherous - We Wit' It
TTITLE14=Saskia Laroo (feat. Kool Ace) - Sounds Of A Trumpet
TTITLE15=Grandmaster Flash (feat. Carl Murray) - If You Wanna Party
EXTD=
EXTT0=
EXTT1=
EXTT2=
EXTT3=
EXTT4=
EXTT5=
EXTT6=
EXTT7=
EXTT8=
EXTT9=
EXTT10=
EXTT11=
EXTT12=
EXTT13=
EXTT14=
EXTT15=
PLAYORDER=
